{"title":"One Day in August (2001) - Dekapentavgoustos","uid":6971322,"size":732243408,"categoryP":"video","categoryS":"movies","magnet":"?xt=urn:btih:d361ba71a989f6c00c4d66b9afa8b6e0f4cdf85b&amp;dn=One+Day+in+August+%282001%29+-+Dekapentavgoustos&amp;tr=udp%3A%2F%2Ftracker.openbittorrent.com%3A80&amp;tr=udp%3A%2F%2Fopen.demonii.com%3A1337&amp;tr=udp%3A%2F%2Ftracker.coppersurfer.tk%3A6969&amp;tr=udp%3A%2F%2Fexodus.desync.com%3A6969","seeders":2,"leechers":0,"uploader":"xiliaeuro","files":1,"time":1327100062,"description":"Format                         : AVI\nFormat/Info                    : Audio Video Interleave\nFile size                      : 698 MiB\nDuration                       : 1h 40mn\nOverall bit rate               : 970 Kbps\n\nVideo\nID                             : 0\nFormat                         : MPEG-4 Visual\nFormat settings, BVOP          : Yes\nFormat settings, QPel          : No\nFormat settings, GMC           : No warppoints\nFormat settings, Matrix        : Default (H.263)\nCodec ID                       : DX50\nCodec ID/Hint                  : DivX 5\nDuration                       : 1h 40mn\nBit rate                       : 860 Kbps\nWidth                          : 640 pixels\nHeight                         : 368 pixels\nDisplay aspect ratio           : 16:9\nFrame rate                     : 25.000 fps\nColor space                    : YUV\nChroma subsampling             : 4:2:0\nBit depth                      : 8 bits\nScan type                      : Progressive\nCompression mode               : Lossy\nBits/(Pixel*Frame)             : 0.146\nStream size                    : 620 MiB (89%)\nTitle                          : NeoVideo92CF\nWriting library                : DivX 5.0.2 (UTC 2002-05-16)\n\nAudio\nID                             : 1\nFormat                         : MPEG Audio\nFormat version                 : Version 1\nFormat profile                 : Layer 3\nMode                           : Joint stereo\nMode extension                 : MS Stereo\nCodec ID                       : 55\nCodec ID/Hint                  : MP3\nDuration                       : 1h 40mn\nBit rate mode                  : Constant\nBit rate                       : 96.0 Kbps\nChannel(s)                     : 2 channels\nSampling rate                  : 48.0 KHz\nCompression mode               : Lossy\nStream size                    : 69.1 MiB (10%)\nAlignment                      : Split accross interleaves\nInterleave, duration           : 24 ms (0.60 video frame)\nInterleave, preload duration   : 45 ms\nTitle                          : NeoSound92CF0\n\n","torrent":{"xt":"urn:btih:d361ba71a989f6c00c4d66b9afa8b6e0f4cdf85b","amp;dn":"One+Day+in+August+%282001%29+-+Dekapentavgoustos","amp;tr":["udp%3A%2F%2Ftracker.openbittorrent.com%3A80","udp%3A%2F%2Fopen.demonii.com%3A1337","udp%3A%2F%2Ftracker.coppersurfer.tk%3A6969","udp%3A%2F%2Fexodus.desync.com%3A6969"],"infoHash":"d361ba71a989f6c00c4d66b9afa8b6e0f4cdf85b","infoHashBuffer":{"type":"Buffer","data":[211,97,186,113,169,137,246,192,12,77,102,185,175,168,182,224,244,205,248,91]},"announce":[],"urlList":[]}}